<?xml version="1.0" encoding="UTF-8"?><svg id="Layer_1" xmlns="http://www.w3.org/2000/svg" width="1700" height="360" viewBox="0 0 1700 360"><defs><style>.cls-1{fill:#dfba70;}</style></defs><path class="cls-1" d="M189.13,191.27c-5.38,31.72-33.33,55.6-65.69,55.82-10.73.07-21.03-2.34-30.6-7.16-22.62-11.4-36.77-34.19-36.94-59.48-.25-36.99,29.65-67.29,66.64-67.54,27.12-.18,51.79,16.36,62.23,40.96h.08s.72,1.98.72,1.98c.4,1.04.79,2.09,1.14,3.16l6.18-.04c-9.3-30.93-37.89-52.18-70.39-51.96-40.25.27-72.77,33.23-72.51,73.48.19,28.04,16.04,53.05,41.37,65.29,7.63,3.68,15.77,5.98,24.2,6.84,18.77,1.93,36.55-3.22,51.22-14.26,15.18-11.42,25.41-28.5,28.31-47.12l-5.96.04Z"/><path class="cls-1" d="M184.78,153.86l-11.75.08c-9.66-18.59-28.98-30.53-50.41-30.39-31.12.21-56.28,25.7-56.07,56.82,0,.28,0,.57.01.85,2.18.06,4.38.24,6.59.53-.02-.47-.03-.95-.03-1.42-.18-27.5,22.04-50.02,49.54-50.21,19.68-.13,37.45,11.21,45.64,29.01l18.41-.12-1.14-3.16c-.26-.66-.52-1.33-.79-1.98Z"/><path class="cls-1" d="M177.51,190.34c-2.38.14-4.77.44-7.15.89l-.68.12c-19.54,3.96-35.64,18.17-42.01,37.09-.63,1.89-1.13,3.7-1.55,5.57-.15.66-.29,1.32-.42,1.99.71-.04,1.41-.09,2.11-.16,24.88-2.41,45.14-21.04,49.69-45.51ZM169.91,197.04c-5.82,16.2-19.72,28.51-36.6,32.27,5.84-16.28,19.73-28.53,36.6-32.27Z"/><path class="cls-1" d="M138.03,178.74c-.04-5.81-1.16-11.59-3.25-16.7-2.85-6.98-7.32-12.44-12.66-15.49-9.39,5.53-15.57,18.38-15.48,32.4.04,5.79,1.15,11.55,3.23,16.65,1.39,3.42,3.16,6.47,5.27,9.09l.73.86c2.01,2.32,4.27,4.21,6.68,5.59,9.39-5.52,15.57-18.38,15.48-32.4ZM120.15,201.92l-.69-.81c-1.75-2.17-3.22-4.74-4.39-7.62-1.81-4.45-2.78-9.49-2.82-14.58-.07-10.43,3.82-20.18,9.92-25.5,3.03,2.58,5.61,6.29,7.43,10.75,1.82,4.46,2.8,9.51,2.83,14.62.07,10.43-3.81,20.18-9.91,25.5-.83-.7-1.62-1.49-2.37-2.36Z"/><path class="cls-1" d="M75.79,192.12c-2.79-.56-5.63-.91-8.48-1.04,3.27,16.28,13.83,30.53,28.59,38.43l.81.42c7.3,3.73,15,5.78,23.03,6.14-.52-2.58-1.23-5.15-2.11-7.65-2.88-8.15-7.73-15.65-14-21.7-7.73-7.45-17.36-12.49-27.83-14.59ZM99.28,224.94l-.74-.38c-10.8-5.78-19.22-15.51-23.52-26.88,9.29,1.93,17.83,6.44,24.71,13.07,5.44,5.24,9.68,11.7,12.31,18.71-4.4-.92-8.67-2.43-12.76-4.52Z"/><path class="cls-1" d="M260.12,182.28c.05,7.8,3.06,14.08,9.03,18.83,5.97,4.75,13.99,7.1,24.08,7.03,12.18-.08,21.74-3.92,28.67-11.52l9.84,5.36c-4.91,5.81-10.49,10.02-16.72,12.63-6.23,2.61-13.7,3.95-22.39,4-12.18.08-22.33-2.9-30.43-8.93-9.25-6.92-13.91-16.03-13.98-27.32-.07-11.1,4.53-20.21,13.81-27.32,8.08-6.21,18.12-9.35,30.11-9.43,17.26-.11,30.53,5.76,39.81,17.63l-10.35,3.78c-7.03-7.38-16.83-11.02-29.39-10.94-9.52.06-17.26,2.56-23.22,7.48-5.96,4.93-8.92,11.17-8.87,18.72ZM492.51,188.11l-33.31-41.42-14.28.1.46,68.91,11.42-.08-.38-56.35h.29s35.8,44.69,35.8,44.69l35.49-45.17h.29s.38,56.35.38,56.35l11.42-.08-.46-68.91-14.23.09-32.89,41.86ZM645.92,196.28c.08,12.06-8.57,18.14-25.96,18.26l-54.92.37-.46-68.91,55.68-.37c6.98-.05,12.48,1.63,16.5,5.03,4.02,3.4,6.05,7.95,6.09,13.67.04,6.28-2.91,11.16-8.85,14.62,7.89,2.61,11.86,8.39,11.92,17.34ZM576.19,174.75l44.45-.3c3.17-.02,5.82-.95,7.93-2.78,2.11-1.83,3.16-4.06,3.14-6.67-.02-2.81-.99-5.03-2.9-6.68-1.91-1.64-4.52-2.46-7.82-2.44l-44.93.3.12,18.56ZM634.2,194.74c-.04-6.73-4.22-10.06-12.54-10.01l-45.4.3.13,19.51,43.6-.29c9.52-.06,14.26-3.23,14.22-9.52ZM667.55,214.22l11.42-.08-.46-68.91-11.42.08.46,68.91ZM693.82,214.04l12.49-.08,7.83-15.05c-3.99-.5-8.02-.73-12.07-.73l-8.26,15.86ZM744.19,144.79l36.92,68.67-12.49.08-2.43-4.56c-2.82-1.41-5.71-2.71-8.65-3.94-12.91-5.41-26.86-9.15-40.84-11.01-3.97-.53-7.94-.85-11.89-1.08-1.32-.08-2.64-.16-3.96-.2-.5-.02-1-.06-1.5-.07l-.07-10.08c3.53.08,7.07.3,10.6.6l19.94-38.32,14.37-.1ZM758.56,194.71l-21.38-40.05-15.61,29.98c12.65,1.97,25.09,5.35,36.99,10.06ZM861.12,178.38c-4.15-3.08-10.54-5.16-19.17-6.25-3.05-.36-9.33-.83-18.86-1.4-6.47-.34-11.14-1.01-14.01-2-4.01-1.37-6.02-3.58-6.04-6.63-.02-2.92,1.84-5.21,5.57-6.89,3.73-1.67,9.12-2.54,16.17-2.58,10.6-.07,21.02,2.46,31.27,7.6l6.9-7.75c-10.07-6.72-22.53-10.04-37.38-9.94-11.04.07-19.58,2-25.62,5.78-6.04,3.79-9.03,8.91-8.99,15.39.04,6.28,2.74,10.74,8.09,13.37,4.58,2.25,12.56,3.72,23.92,4.41,12.82.74,20.7,1.48,23.62,2.22,5.59,1.42,8.4,4.32,8.43,8.7.02,3.75-2.08,6.71-6.32,8.9-4.43,2.25-10.67,3.4-18.73,3.46-12.44.08-24.07-3.14-34.9-9.67l-6.23,8.32c9.82,7.68,23.52,11.46,41.1,11.34,12.12-.08,21.4-2.14,27.85-6.18,6.45-4.04,9.64-9.71,9.6-17.01-.04-5.71-2.13-10.11-6.27-13.19ZM971.91,177.64c.08,11.3-4.5,20.47-13.71,27.51-8.08,6.15-18.15,9.26-30.21,9.34-12.18.08-22.36-2.93-30.52-9.03-9.31-6.92-14-15.99-14.08-27.23-.07-11.04,4.56-20.14,13.91-27.31,8.21-6.27,18.28-9.45,30.21-9.53,11.99-.08,22.07,2.96,30.24,9.13,9.38,7.05,14.1,16.09,14.17,27.13ZM960.01,177.72c-.05-8.06-3.52-14.57-10.41-19.54-5.93-4.27-13.27-6.38-22.03-6.33-9.58.06-17.37,2.57-23.37,7.53-6,4.96-8.97,11.21-8.92,18.76.05,7.81,3.04,14.09,8.98,18.84,5.93,4.75,13.82,7.09,23.65,7.03,9.77-.07,17.58-2.53,23.42-7.39,5.84-4.86,8.73-11.16,8.68-18.91ZM343.36,216.38l12.49-.08,7.83-15.05c-3.99-.5-8.02-.73-12.07-.73l-8.26,15.86ZM393.73,147.13l36.92,68.67-12.49.08-2.43-4.56c-2.82-1.41-5.71-2.71-8.65-3.94-12.91-5.41-26.86-9.15-40.84-11.01-3.97-.53-7.94-.85-11.89-1.08-1.32-.08-2.64-.16-3.96-.2-.5-.02-1-.06-1.5-.07l-.07-10.08c3.53.08,7.07.3,10.6.6l19.94-38.32,14.37-.1ZM408.1,197.04l-21.38-40.05-15.61,29.98c12.65,1.97,25.09,5.35,36.99,10.06Z"/><path class="cls-1" d="M1258.46,137.12l.04-.08-.08.06s-.02-.01-.02-.02c-2.69-2.21-7.35.57-15.74,9.33-5.75,5.92-13.22,15.28-20.01,25.06-4.12,2.85-7.67,4.96-11.85,7.04-13.59,7.1-25.49,10.01-33.59,8.2-2.19-.37-3.66,1.01-3.93,2.5-.31,1.68.83,3.28,2.58,3.63,11.86,2.55,27-3.41,37.56-8.84.43-.2.84-.4,1.25-.6-7.36,10.97-15.69,23.41-21.72,34.74-.67,1.56-.21,3.23,1.14,4.15.19.13.39.24.61.33,1.71.74,4.18.22,5.22-1.89,2.7-4.43,5.36-8.87,8.01-13.31,6.32-10.58,12.85-21.53,19.96-31.96,10.43-7.18,19.3-15.22,24.37-22.09,8.04-10.95,8.35-14.37,6.19-16.25Z"/><path class="cls-1" d="M1302.26,162.46c-1.92-3.35-6.12-7.34-15.21-7.36-.73,0-1.46.04-2.18.13,1.67-3.68,3.56-8.15,4.91-11.62.61.06,1.25.13,1.93.19,5.14.53,11.54,1.18,15.93.49l.15-.03c2.43-.54,3.46-2.84,3.06-4.75-.39-1.84-2.18-3.52-4.78-3.01-5.9,1.36-12.43,1.16-18.61.73l-1.87-.13-.71,1.98c-1.66,4.58-3.92,10.81-6.53,15.77-1.98,1.24-7.1,4.58-9.29,6.99-2.44,2.33-4.03,6.8-3.28,9.2.4,1.28,2.07,3,3.56,3.23,2.32.36,4.88-1.29,7.2-4.61,1.71-2.27,3.17-4.49,4.46-6.77,2.05-1.2,4.01-1.71,6.04-1.57,4.64.01,7.76,1.34,9.26,3.96,2.57,4.48.76,13.14-4.73,22.61-8.4,14.48-24.26,29.12-38.32,29.09-5.1-.01-8.85-1.79-10.82-5.16-2.79-4.75-2.12-12.53,1.67-19.35l.08-.16c.79-1.96-.09-3.62-1.37-4.27-1.2-.6-3-.39-4.15,1.51-4.76,8.61-5.33,18.86-1.43,25.5,1.2,2.05,2.8,3.75,4.73,5.06,3.02,2.05,6.82,3.09,11.28,3.1,18.37.04,35.52-15.34,44.37-30.59,6.91-11.92,8.66-23.19,4.66-30.15ZM1272.55,166.79c-.78.76-1.47,1-1.2-.05.2-.81.74-1.53,1.31-2.07.73-.69,1.18-1.31,2.16-1.51,0,0-1.49,2.86-2.27,3.62Z"/><path class="cls-1" d="M1373.36,139.5c.51-.33.92-.79,1.19-1.34.52-1.11.36-2.43-.41-3.37-.7-.85-1.81-1.28-2.93-1.13-21.8.79-46.66,25.95-59.01,49.25-7.96,15.04-9.94,27.73-5.43,34.81.93,1.47,2.13,2.7,3.55,3.67,2.88,1.95,6.73,2.82,11.42,2.59,23.86-1.04,47.6-38.18,53.47-63.28,2.33-9.98,1.66-17.34-1.85-21.18ZM1350.59,196.57c-9.75,13.05-20.08,20.49-29.09,20.96-4.27.18-7.17-.87-8.59-3.12-2.81-4.43-.86-14.02,5.23-25.67,13.06-25.01,33.76-43.27,47.83-47.65.07.33.19.66.36.96.34.6.9,1.1,1.54,1.44,1.99,1.12,3.32,5.8.99,15.63-2.78,11.74-9.78,26.1-18.27,37.46Z"/><path class="cls-1" d="M1411.79,239.45c1.99.87,4.27.5,6.39-1.03.87-.61,3.17-2.23,7.56-14.09,1.14-3.08,1.92-6.19,2.31-9.25.06-.49.12-1.02.16-1.62.06-.85.11-1.69.16-2.51.12-2.06.24-4.02.53-5.54,2.86-4.88,9.16-15.55,14.63-24.25,6.77-.58,13.73-1.49,20.48-2.38,6.69-.88,13.59-1.79,20.25-2.37-3.24,11.1-6.92,23.21-11.75,36.7-.13.35-.47,1.19-.81,2.02l-.5,1.22c-.79,1.02-2.15,3.17-1.18,4.89.67,1.17,2.05,1.6,4.13,1.3,3.53-.52,4.41-2.32,4.59-3.51,5.68-15.2,10.37-28.9,13.95-40.76,5.53-1.33,8.53-2.67,8.58-5.48v-.67s-.3-.59-.3-.59c-.73-1.39-2.13-1.93-5.74-2.09,1.92-6.88,5.7-21.15,5.91-32.26.1-5.41-.62-9.43-2.2-12.3-1.69-3.06-4.43-4.72-7.91-4.79-.69-.01-1.42.05-2.05.17-3.65.54-8,2.7-12.85,6.36-.48.31-.87.61-1.2.93-7.51,6.16-20.26,22.66-35.05,45.36l-1.21.09c-2,.15-3.85.43-5.63.73-2.09.08-4.07.16-5.68.24-3.64-6.55-11.76-9.17-16.34-9.25-4.97-.1-10.63,1-15.54,3.01-2.05.84-8.83,5.57-8.91,9.91-.01.65.1,1.24.35,1.85.92,2.6,4.2,4.14,17.67,4.39,4.56.08,9.31-.26,14.33-.63,1.2-.09,2.42-.18,3.65-.26.21,1.18.38,2.97.4,5.29-.31,5.08-1.12,11.14-2.15,14.07-6.4,10.48-13.98,24-14.08,29.43-.05,2.51,1.73,5.54,4,7.08.34.23.7.43,1.05.59ZM1399.83,175.43c-1.73-.07-2.87-.18-3.65-.29-.1-.01-.22-.03-.31-.04,1.14-.48,2.79-1.08,4.05-1.46,2.95-.91,7.37-1.97,11.65-1.8.58.02,1.12.09,1.66.16,2.31.28,4.29.95,5.88,2.02.49.33.95.7,1.37,1.11-9.02.38-16.13.48-20.64.31ZM1429.32,190.54c.21-.97.37-1.92.47-2.88.02-.21.06-.42.08-.64.11-1.64.32-3.54-.14-4.99,1.77-.38,3-.13,5.14-.35-.16.25-.31.49-.47.74-.31.48-.61.96-.91,1.43-.71,1.12-1.4,2.22-2.07,3.3-.71,1.15-1.4,2.28-2.08,3.39,0,.01-.02.03-.03.05,0-.01,0-.03,0-.04ZM1479.29,132.86l.24-.19c.23-.18.42-.34.56-.46,5.1-3.79,8.18-4.89,9.83-5.13l.24-.03c.18-.02.35-.05.51-.05.42,0,.77.11,1.07.31.73.5,1.95,2.17,1.84,7.79-.2,10.6-5,26.73-7.09,33.72-.08.27-.16.52-.23.76-10.55.36-21.34,1.27-31.78,2.16l-.32.03c-1.88.16-3.77.32-5.65.48,13.14-19.8,24.28-34.08,30.77-39.39ZM1414.85,231.29c-1.64-.89.29-5.69,1.47-8.51,1.2-2.89,4.99-10.15,4.99-10.15.43,2.9-1.68,10.28-2.77,13.08-1.08,2.8-2.99,5.97-3.69,5.58Z"/><path class="cls-1" d="M1516.55,162l.57.53c1.16,1.08,3.02.74,3.73-.67.24-.47.56-.89.99-1.2,1.87-1.33,3.42-1.52,6.66-.74h0c4.49,1.08,9.74,3.82,17.56-2.58,1.61-1.49.73-2.72.43-3.06-.49-.55-1.63-1.33-3.77-.35l-.52.33c-2.03,1.69-3.81,1.4-7.33.66-4.47-.94-10.59-2.24-18.11,3.74-.26.24-.43.44-.55.59-.79,1.07-.4,2.15.34,2.74Z"/><path class="cls-1" d="M1649.59,184.83c-.32-.46-.8-.77-1.35-.87-.26-.05-.92-.17-1.61.3-1.09.65-2.18,1.18-3.32,1.75-.79.39-1.6.79-2.42,1.23-4.81,2.46-9.88,4.16-14.86,5.06.41-1.35.8-2.79,1.15-4.31.86-3.76.88-5.42.9-7.94.02-1.68.03-3.77.32-7.15.81-5.8.08-7.15-.75-7.71-1.12-.75-3.13-.26-5.05,1.95-5.59,4.66-9.65,6.38-9.65,6.38-1.53.59-2.94,1.13-4.24,1.64-1.04.36-2.11.76-3.25,1.24l-.26.11c-7.19,2.71-11.67,3.92-21.12,4.08-.2-2.09-.93-3.94-2.12-5.32-1.48-1.7-3.56-2.62-6.02-2.66-.33,0-.65,0-.96.02,3.48-2.29,2.85-4.56,2.39-5.47-1.04-2.05-3.98-2.58-7.03-1.23-3.42,1.71-6.85,4.55-9.93,8.21-2.58,2.92-4.66,6.25-6.16,9.85l-.24.57c-1.75,4.26-2.36,8.25-1.66,11.35,1.07,4.74,4.99,7.53,10.95,7.64,9.7.18,17.82-8.34,20.22-16.73,8.29-.14,16.41-.84,27.33-5.77.38-.15.78-.31,1.21-.49,4.93-2,8.57-3.94,10.81-5.78.01.26.02.5.03.74.07,1.46.14,2.84-.33,6.29-.66,4.85-1.18,7.21-2.8,11.16-2.85.11-5.62-.06-8.25-.54-3.17-.58-6.13-1.56-9.04-2.99-1.04-.51-2.27-.43-3.22.2-.67.44-1.09,1.05-1.22,1.74-.92,1.89-.87,5.34,1.22,7.42,2.18,2.33,4.23,4.14,6.16,5.45,2.21,1.5,4.28,2.34,6.23,2.55,3.71.4,6.93-1.11,9.57-4.49,1.09-1.39,2.07-3.1,2.96-5.07,6.43-.88,13-2.88,19.34-5.97,2.75-1.38,4.48-2.48,4.86-2.73.92-.49,1.46-1.36,1.58-1.99.08-.44.02-1.12-.38-1.71ZM1575.6,177.74c2.53.05,3.19,2.26,3.31,4.04-.07,0-.14,0-.21,0-1.1.02-2.46.05-3.83-.1-2.65-.25-3.81-1.14-3.77-1.86.05-.88,1.68-2.13,4.5-2.08ZM1563.6,197.53c-3.29-.06-4.01-1.24-4.28-2.26-.81-3.16,1.99-9.37,6.4-14.72.24,2.71,2.54,5.54,8.46,6.14.94.1,1.89.14,2.75.15-2.21,5.55-7.26,10.8-13.33,10.69ZM1613.34,200.66c-2.11.87-4.75-.55-7.85-4.2.62.13,1.26.24,1.93.36l1.02.18c2.79.51,5.67.75,8.62.74-1.11,1.37-2.35,2.35-3.72,2.92Z"/><path class="cls-1" d="M1537.97,203.59c-.08-.71-.08-1.25,0-1.61.08-.38.25-.87.55-1.51,0-.03.03-.07.09-.16,1.11-2.49,2.25-4.91,3.39-7.19.35-.71.62-1.24.85-1.69.6-1.19.93-1.84,1.77-3.75,1.13-2.62,2.11-5.42,2.89-8.33.78-2.96.91-5.31.38-6.97-.04-.15-.15-.48-.39-1.18-.24-.68-1.02-1.44-2.42-2.35-.03-.02-.06-.04-.1-.06-2.24-1.24-4.38-1.72-6.35-1.44-1.73.26-3.47.91-5.16,1.92-2.21,1.32-4.47,2.89-6.69,4.66-3.65,2.89-6.27,5.22-7.79,6.92-.64.76-1.34,1.46-2.08,2.07.41-1.04.94-2.01,1.58-2.9,1.04-1.6,1.41-2.8,1.15-3.68-.07-.26-.27-.6-.64-1.07-.39-.53-1.4-1.02-3.06-1.5-1.12-.36-1.98-.5-2.66-.42-.23.04-.53.16-.93.38-.45.27-.72,1.04-.87,2.47-.29,2.1-.76,4.06-1.41,5.83-.64,1.76-1.38,3.51-2.2,5.21-.69,1.5-1.39,3.14-2.06,4.86-.8,1.86-1.02,3.32-.66,4.48.24.78.86,1.71,1.92,2.87.33.3.64.55.94.74.7.45,1.33.64,1.93.57,1.26-.18,2.46-1.18,3.59-2.97l1.97-2.93c3.23-4.65,6.95-9.15,11.06-13.37,5.4-5.52,10.07-8.61,13.87-9.16h.06c1-.04,1.25.45,1.35.82,0,.02.07.25.2.67.06.26.09.85-.14,2.19-.35,1.9-.87,3.7-1.55,5.35l-.03.13c-2.04,5.28-3.34,8.19-6.03,13.47-.35.69-.71,1.38-1.09,2.09-.59,1.12-1.15,2.23-1.67,3.32-.74,1.56-.9,3.05-.49,4.41.68,2.2,2.1,3.31,4.25,3.28l.23-.02c1.36-.2,2.89-1.14,2.42-4.46Z"/><rect class="cls-1" x="1056.56" y="54.11" width="7.19" height="251.77"/></svg>