<?xml version="1.0" standalone="no"?>
<!DOCTYPE svg PUBLIC "-//W3C//DTD SVG 20010904//EN"
 "http://www.w3.org/TR/2001/REC-SVG-20010904/DTD/svg10.dtd">
<svg version="1.0" xmlns="http://www.w3.org/2000/svg"
 width="1321.000000pt" height="353.000000pt" viewBox="0 0 1321.000000 353.000000"
 preserveAspectRatio="xMidYMid meet">

<g transform="translate(0.000000,353.000000) scale(0.100000,-0.100000)"
fill="#000000" stroke="none">
<path d="M0 1765 l0 -1765 6605 0 6605 0 0 1765 0 1765 -6605 0 -6605 0 0
-1765z m1775 1420 c268 -56 511 -190 705 -392 96 -99 128 -139 186 -233 95
-156 100 -150 -120 -150 l-175 0 -33 41 c-137 172 -306 299 -477 358 -336 116
-706 61 -974 -144 -99 -75 -105 -81 -169 -156 -64 -76 -126 -178 -164 -270
-14 -35 -30 -73 -35 -84 -13 -31 -30 -121 -41 -223 -12 -117 10 -344 41 -417
5 -11 16 -38 26 -60 25 -60 53 -113 99 -185 l41 -64 0 -220 c0 -200 -2 -221
-17 -224 -24 -5 -211 186 -280 285 -53 75 -110 177 -142 256 -9 20 -23 52 -31
71 -8 19 -15 41 -15 50 0 9 -4 24 -9 34 -25 47 -48 183 -58 343 -5 83 16 290
36 349 5 14 17 52 26 85 20 72 22 77 73 186 71 151 144 254 276 385 129 128
213 189 366 265 145 73 302 119 450 133 90 8 336 -3 415 -19z m-244 -820 c169
-60 176 -282 11 -348 -54 -22 -87 -21 -137 2 -83 37 -128 127 -106 209 15 57
71 117 127 137 50 18 53 18 105 0z m1806 -28 c68 -18 144 -75 180 -136 39 -65
35 -74 -44 -90 -77 -15 -76 -15 -97 20 -10 16 -36 43 -58 60 -37 26 -48 29
-120 29 -98 0 -144 -21 -190 -87 l-33 -48 0 -145 0 -146 35 -49 c49 -67 88
-88 176 -89 103 -2 153 29 195 120 16 36 24 44 37 38 9 -4 29 -9 45 -12 15 -2
30 -8 33 -13 3 -5 14 -9 25 -9 32 0 33 -26 1 -82 -41 -71 -85 -112 -156 -143
-51 -23 -74 -26 -161 -27 -100 0 -158 12 -223 46 -37 20 -116 103 -141 148
-25 46 -51 154 -51 213 0 57 26 168 51 217 37 73 132 154 211 180 79 26 200
28 285 5z m943 6 c0 -23 -125 -143 -149 -143 -27 0 -51 10 -51 22 0 14 30 78
52 111 18 25 25 27 84 27 53 0 64 -3 64 -17z m5867 -7 c8 -7 9 -23 5 -46 -8
-35 -8 -35 -70 -41 -35 -3 -68 -11 -74 -17 -7 -7 -12 -33 -12 -59 l-1 -48 60
-5 60 -5 0 -50 0 -50 -62 -3 -63 -3 0 -233 c0 -261 5 -246 -74 -246 -77 0 -75
-4 -78 250 l-3 225 -25 3 c-66 7 -70 10 -70 51 0 45 12 58 60 63 l35 3 7 73
c7 80 25 111 83 137 52 24 197 25 222 1z m-6286 4 c18 -10 19 -25 19 -400 0
-439 6 -410 -79 -410 -77 0 -71 -33 -71 406 0 364 1 394 18 403 22 14 88 14
113 1z m1461 -7 c21 -19 25 -92 6 -111 -19 -19 -134 -16 -142 4 -9 25 -7 83 4
105 14 25 104 27 132 2z m2179 7 c10 -6 19 -18 19 -28 0 -9 6 -34 14 -57 8
-22 19 -58 24 -80 31 -115 44 -162 52 -176 5 -9 12 -32 15 -51 10 -54 52 -171
57 -162 3 5 15 45 28 89 12 44 26 91 30 105 5 14 16 52 25 85 9 33 21 69 25
80 8 19 24 77 37 135 3 14 13 35 21 48 13 21 21 22 122 22 79 0 111 -4 119
-14 8 -9 10 -125 9 -407 l-3 -394 -68 0 c-49 0 -70 4 -77 15 -6 9 -10 143 -10
313 0 277 -7 347 -24 250 -8 -43 -25 -100 -36 -123 -4 -9 -11 -36 -15 -60 -4
-25 -11 -49 -15 -55 -4 -5 -10 -23 -13 -40 -3 -16 -13 -57 -22 -90 -9 -33 -23
-88 -31 -123 -9 -34 -22 -69 -31 -77 -18 -19 -123 -20 -144 -2 -16 13 -33 60
-44 117 -3 19 -10 44 -15 55 -4 11 -15 47 -24 80 -9 33 -20 74 -25 90 -5 17
-13 48 -19 70 -6 22 -17 63 -26 90 -8 28 -18 67 -21 88 -18 94 -25 15 -25
-273 0 -349 5 -330 -80 -330 -86 0 -80 -30 -80 411 l0 390 23 9 c31 12 204 12
228 0z m924 0 c24 -9 26 -13 23 -67 l-3 -58 -72 -3 -73 -3 0 65 c0 42 4 66 13
69 21 9 85 7 112 -3z m1939 0 l26 -10 0 -389 c0 -444 7 -411 -89 -411 -39 0
-53 4 -61 19 -6 13 -10 155 -10 395 0 419 -2 406 70 406 21 0 50 -4 64 -10z
m-5515 -221 c61 -14 100 -44 122 -96 17 -39 19 -70 19 -263 0 -244 5 -230 -76
-230 -86 0 -84 -6 -84 221 0 187 -1 203 -21 230 -31 44 -82 55 -144 32 -80
-30 -89 -57 -93 -283 -3 -127 -7 -187 -15 -192 -16 -10 -109 -10 -125 0 -9 7
-12 72 -10 293 l3 284 44 3 c79 6 91 -2 91 -55 l0 -47 38 37 c21 20 43 37 50
37 7 0 12 4 12 9 0 11 69 28 115 30 17 0 50 -4 74 -10z m1101 -22 c47 -24 110
-96 110 -128 0 -14 -7 -19 -25 -19 -13 0 -35 -5 -49 -11 -35 -16 -69 -4 -83
29 -30 68 -187 68 -224 0 -48 -86 -51 -167 -7 -263 16 -36 70 -65 121 -65 62
0 90 15 116 61 l22 39 62 -6 c34 -4 66 -10 71 -14 14 -13 -13 -76 -48 -112
-57 -59 -112 -78 -220 -78 -108 0 -168 20 -224 73 -64 61 -77 99 -77 222 0 94
3 116 22 150 22 42 69 90 115 118 67 41 237 44 318 4z m680 5 c83 -39 90 -58
90 -256 0 -114 5 -186 16 -232 18 -80 14 -85 -66 -82 -55 3 -64 10 -83 63 -3
6 -12 4 -23 -5 -56 -46 -101 -60 -185 -60 -67 0 -91 4 -118 21 -65 39 -83 71
-83 141 1 103 75 156 262 188 137 23 154 35 127 92 -13 28 -26 38 -61 48 -63
17 -113 6 -151 -36 -30 -33 -32 -33 -84 -25 -69 11 -79 21 -55 62 31 52 83 87
144 98 75 13 226 4 270 -17z m2387 1 c9 -11 8 -24 -6 -56 l-18 -42 -64 -5
c-72 -6 -86 -12 -114 -55 -17 -26 -20 -53 -23 -210 -2 -101 -9 -185 -14 -192
-13 -16 -102 -17 -129 -3 -18 10 -19 24 -19 283 0 199 3 276 12 285 7 7 36 12
65 12 48 0 54 -3 63 -26 6 -14 10 -37 10 -50 0 -24 3 -22 33 18 19 25 47 48
67 55 42 15 121 7 137 -14z m518 1 c45 -21 80 -62 93 -110 7 -25 12 -114 12
-218 0 -112 4 -185 11 -198 17 -32 -13 -50 -76 -46 -43 3 -51 7 -65 33 -8 17
-16 32 -17 34 -2 2 -20 -7 -40 -20 -64 -41 -91 -49 -170 -49 -64 0 -83 4 -120
25 -101 60 -109 198 -16 261 39 26 110 49 178 59 28 3 74 13 103 21 49 15 52
17 52 49 0 88 -154 113 -223 36 -23 -26 -30 -29 -69 -24 -92 12 -98 39 -22
110 34 32 57 44 97 52 69 13 232 5 272 -15z m1409 15 c73 -13 156 -65 195
-123 98 -143 46 -357 -105 -430 -22 -11 -47 -23 -56 -27 -34 -17 -190 -10
-246 10 -96 35 -138 77 -172 172 -40 109 -11 249 67 320 80 74 191 102 317 78z
m768 -5 c13 -9 8 -57 -11 -88 -16 -28 -20 -30 -77 -27 -54 2 -63 -1 -87 -25
-15 -15 -29 -37 -32 -48 -15 -74 -19 -117 -24 -246 l-6 -145 -52 -3 c-98 -6
-93 -21 -93 291 0 199 3 276 12 285 7 7 35 12 63 12 61 0 75 -12 75 -64 l0
-40 32 43 c40 56 78 73 142 66 28 -4 53 -8 58 -11z m493 -15 c54 -28 104 -77
122 -119 25 -57 44 -143 38 -167 -5 -23 -6 -23 -215 -23 l-210 0 0 -30 c0 -72
61 -130 137 -130 53 0 87 15 104 46 10 20 20 24 58 23 61 -1 95 -12 99 -29 5
-26 -58 -89 -114 -115 -46 -21 -70 -25 -149 -25 -143 0 -212 36 -266 140 -21
39 -24 59 -24 155 0 105 2 113 31 165 56 99 150 144 279 135 42 -3 86 -14 110
-26z m708 2 c50 -22 85 -58 89 -90 3 -21 -4 -25 -56 -39 -60 -15 -60 -15 -80
10 -31 38 -58 48 -128 48 -73 0 -108 -18 -108 -55 0 -29 31 -47 110 -64 152
-33 217 -57 262 -99 36 -34 38 -38 38 -99 0 -63 -1 -65 -47 -111 -60 -59 -103
-72 -235 -72 -139 0 -226 34 -268 102 -34 56 -30 61 68 71 39 5 46 2 82 -34
38 -39 38 -39 120 -39 72 0 83 3 105 24 46 46 0 96 -100 109 -46 7 -95 20
-140 38 -11 4 -30 10 -42 14 -54 15 -103 83 -103 142 0 50 41 109 99 142 63
35 259 37 334 2z m-8695 7 c17 -17 17 -549 0 -566 -18 -18 -113 -15 -132 4
-14 13 -16 53 -16 283 0 194 3 270 12 279 7 7 37 12 68 12 31 0 61 -5 68 -12z
m1110 0 c9 -9 12 -85 12 -279 0 -308 3 -299 -85 -299 -43 0 -56 4 -65 19 -11
21 -15 527 -4 555 8 20 123 23 142 4z m3106 6 c14 -5 16 -40 16 -285 0 -319 5
-303 -93 -297 l-52 3 -3 293 -2 292 59 0 c33 0 66 -3 75 -6z m-7405 -114 c18
-9 68 -91 167 -275 27 -49 54 -98 59 -107 10 -17 19 -32 70 -123 15 -27 31
-54 35 -60 4 -5 29 -50 54 -100 26 -49 51 -94 55 -98 11 -11 22 5 71 98 23 44
75 136 115 205 39 69 89 157 110 195 111 205 147 263 168 269 12 3 84 6 159 6
126 0 138 -2 148 -19 12 -24 14 -1709 2 -1729 -7 -9 -47 -12 -168 -10 l-159 3
-5 528 -5 529 -58 -114 c-32 -62 -70 -135 -86 -163 -15 -27 -73 -138 -128
-245 -137 -266 -145 -281 -157 -277 -13 4 -44 59 -141 249 -41 80 -99 193
-130 250 -30 57 -76 145 -102 196 -27 50 -51 92 -55 92 -4 0 -9 -235 -10 -522
l-3 -523 -162 -3 -163 -2 0 874 c0 690 3 875 13 879 23 10 288 7 306 -3z
m1771 -560 c12 -8 12 -16 -5 -61 -19 -55 -107 -232 -140 -284 -39 -61 -145
-191 -192 -236 -72 -69 -175 -149 -185 -143 -4 3 -8 100 -8 216 l0 211 54 71
c30 39 71 102 90 140 20 38 41 75 47 83 9 10 49 13 168 13 86 0 163 -4 171
-10z m-1658 -569 c24 -10 59 -22 78 -26 49 -10 64 -26 116 -129 26 -50 64
-124 86 -164 31 -59 35 -74 23 -78 -28 -11 -228 17 -304 42 -86 29 -81 16 -81
189 0 84 3 160 6 169 8 21 23 20 76 -3z m746 -13 c13 -13 17 -305 4 -324 -17
-26 -155 -54 -299 -61 -59 -3 -93 -1 -93 6 0 13 149 302 166 321 7 8 34 21 61
28 26 8 66 19 88 27 53 17 59 17 73 3z"/>
<path d="M6505 1809 c-22 -4 -56 -11 -75 -15 -19 -3 -50 -17 -67 -31 -60 -44
-36 -123 41 -137 38 -7 100 6 128 27 41 32 63 160 28 163 -8 1 -33 -2 -55 -7z"/>
<path d="M9405 1808 c-22 -5 -53 -12 -70 -15 -31 -6 -75 -30 -87 -48 -4 -5 -8
-24 -8 -41 0 -90 152 -112 215 -30 20 26 25 44 25 89 0 63 0 63 -75 45z"/>
<path d="M10760 1974 c-48 -43 -64 -95 -57 -176 6 -70 29 -110 77 -137 77 -43
170 -21 224 52 29 39 30 177 3 222 -32 53 -75 75 -145 75 -57 0 -65 -3 -102
-36z"/>
<path d="M12014 2011 c-45 -21 -74 -65 -74 -113 l0 -28 135 0 c135 0 135 0
135 23 0 35 -27 84 -58 106 -43 30 -91 34 -138 12z"/>
</g>
</svg>
