<?xml version="1.0" standalone="no"?>
<!DOCTYPE svg PUBLIC "-//W3C//DTD SVG 20010904//EN"
 "http://www.w3.org/TR/2001/REC-SVG-20010904/DTD/svg10.dtd">
<svg version="1.0" xmlns="http://www.w3.org/2000/svg"
 width="960.000000pt" height="540.000000pt" viewBox="0 0 960.000000 540.000000"
 preserveAspectRatio="xMidYMid meet">

<g transform="translate(0.000000,540.000000) scale(0.100000,-0.100000)"
fill="#000000" stroke="none">
<path d="M1735 3533 c-66 -8 -181 -36 -224 -55 -77 -33 -205 -124 -268 -191
-72 -78 -142 -195 -180 -302 -26 -74 -28 -91 -28 -235 0 -144 2 -161 29 -243
38 -116 110 -235 194 -319 36 -38 70 -68 74 -68 5 0 8 54 8 119 l0 120 -48 94
c-27 51 -55 122 -63 158 -44 200 21 421 167 565 71 71 207 145 301 164 91 19
244 8 327 -24 94 -36 196 -106 257 -177 l52 -59 98 0 c66 0 99 4 99 11 0 23
-75 134 -134 197 -71 76 -206 169 -292 200 -107 39 -263 58 -369 45z"/>
<path d="M1740 3023 c-60 -55 -42 -147 33 -172 106 -35 181 102 95 174 -41 34
-88 33 -128 -2z"/>
<path d="M2714 3026 c-58 -26 -103 -75 -119 -129 -54 -181 40 -328 209 -328
72 0 110 12 149 49 25 23 57 72 57 85 0 3 -12 7 -27 10 -16 3 -36 9 -45 12
-13 5 -18 2 -18 -10 0 -9 -15 -32 -34 -51 -28 -28 -41 -34 -78 -34 -89 0 -138
60 -138 169 0 77 24 137 61 156 15 8 51 15 80 15 45 0 55 -4 86 -35 34 -34 37
-35 74 -25 l40 11 -18 31 c-10 17 -36 42 -57 57 -33 21 -53 26 -115 29 -49 1
-87 -3 -107 -12z"/>
<path d="M3337 3006 c-17 -36 -14 -46 13 -46 15 0 80 59 80 73 0 4 -17 7 -38
7 -34 0 -40 -4 -55 -34z"/>
<path d="M6723 3028 c-24 -12 -43 -55 -43 -99 0 -23 -5 -28 -27 -31 -20 -2
-29 -9 -31 -25 -3 -20 1 -23 27 -23 l30 0 3 -137 3 -138 38 -3 37 -3 0 140 0
141 40 0 c36 0 40 3 40 24 0 21 -5 25 -37 28 -33 3 -38 7 -41 29 -4 35 22 59
64 59 31 0 35 3 32 23 -3 19 -9 22 -58 24 -30 1 -65 -3 -77 -9z"/>
<path d="M3120 2800 l0 -230 40 0 40 0 0 230 0 230 -40 0 -40 0 0 -230z"/>
<path d="M3970 2994 c0 -35 1 -35 38 -32 34 3 37 6 40 36 3 31 2 32 -37 32
-40 0 -41 -1 -41 -36z"/>
<path d="M5172 2803 l3 -228 40 0 40 0 3 183 c1 100 6 182 11 182 5 0 20 -48
35 -107 14 -60 36 -142 49 -183 l23 -75 41 -3 c40 -3 42 -1 51 30 72 255 97
338 104 338 4 0 9 -82 10 -182 l3 -183 38 -3 37 -3 0 231 0 231 -72 -3 -72 -3
-33 -110 c-18 -60 -37 -134 -43 -162 -6 -29 -14 -53 -18 -53 -4 0 -29 74 -56
165 l-49 165 -74 0 -73 0 2 -227z"/>
<path d="M5782 2998 c3 -30 6 -33 37 -33 37 0 58 22 48 49 -4 11 -19 16 -47
16 -40 0 -41 -1 -38 -32z"/>
<path d="M6910 2800 l0 -231 43 3 42 3 0 225 0 225 -42 3 -43 3 0 -231z"/>
<path d="M3665 2895 c-16 -9 -37 -23 -47 -32 -15 -13 -17 -12 -20 9 -2 19 -10
24 -41 26 l-38 3 3 -163 3 -163 38 -3 37 -3 0 99 c0 118 12 157 52 178 31 16
82 11 95 -9 5 -7 10 -68 13 -137 l5 -125 43 -3 44 -3 -4 140 c-3 137 -4 141
-30 167 -33 34 -108 43 -153 19z"/>
<path d="M4230 2888 c-56 -29 -80 -73 -80 -148 0 -109 58 -170 162 -170 74 0
122 20 147 61 24 39 20 49 -22 49 -22 0 -38 -8 -53 -27 -18 -23 -29 -28 -64
-27 -56 2 -79 26 -87 92 -6 57 9 107 38 122 34 19 88 12 112 -14 17 -18 29
-22 55 -19 38 6 39 11 11 47 -47 60 -139 74 -219 34z"/>
<path d="M4625 2896 c-37 -16 -73 -64 -53 -70 42 -13 57 -12 72 5 35 42 114
33 130 -14 6 -15 7 -29 4 -32 -2 -3 -42 -13 -88 -22 -100 -20 -140 -48 -140
-98 0 -18 3 -41 6 -50 18 -45 135 -61 189 -25 37 25 41 25 48 0 4 -15 14 -20
39 -20 l34 0 -4 138 c-2 75 -9 145 -14 155 -22 43 -156 62 -223 33z m155 -186
c0 -46 -20 -78 -56 -90 -44 -15 -88 4 -92 41 -4 33 21 55 78 67 68 15 70 15
70 -18z"/>
<path d="M6084 2873 l-34 -37 0 32 c0 30 -2 32 -35 32 l-35 0 0 -165 0 -165
40 0 40 0 0 98 c0 128 17 166 76 170 33 2 44 8 53 28 15 34 7 44 -36 44 -28 0
-42 -8 -69 -37z"/>
<path d="M6316 2895 c-32 -17 -55 -43 -56 -62 0 -20 59 -15 87 7 31 24 70 26
101 4 30 -21 30 -62 0 -68 -13 -3 -47 -10 -76 -16 -29 -5 -66 -17 -82 -25 -58
-30 -67 -90 -21 -136 25 -25 37 -29 83 -29 36 0 64 7 87 21 27 16 36 18 42 7
5 -7 9 -17 9 -21 0 -5 17 -7 38 -5 27 2 36 7 33 18 -2 8 -5 71 -7 139 -2 81
-8 129 -16 139 -34 41 -164 57 -222 27z m154 -191 c0 -49 -14 -70 -54 -84 -42
-14 -84 3 -93 38 -8 32 12 50 73 67 72 20 74 19 74 -21z"/>
<path d="M7195 2896 c-40 -17 -91 -77 -100 -116 -18 -82 22 -166 92 -195 54
-23 140 -19 188 8 47 26 85 92 85 148 0 56 -39 119 -90 146 -49 26 -127 30
-175 9z m147 -74 c27 -25 32 -36 32 -80 2 -84 -54 -133 -128 -114 -45 12 -71
54 -71 114 0 43 4 53 33 79 43 39 90 39 134 1z"/>
<path d="M7661 2875 l-31 -36 0 31 c0 28 -2 30 -40 30 l-40 0 2 -162 3 -163
36 -3 36 -3 6 111 c7 136 19 160 77 160 30 0 42 5 50 21 17 31 5 49 -34 49
-26 0 -41 -8 -65 -35z"/>
<path d="M7889 2887 c-42 -28 -79 -98 -79 -152 0 -58 37 -126 80 -147 40 -21
139 -24 173 -7 27 14 67 50 67 60 0 5 -16 11 -36 15 -28 5 -39 2 -55 -15 -44
-47 -127 -17 -144 52 l-7 27 126 0 126 0 0 38 c0 86 -71 152 -166 152 -36 0
-61 -6 -85 -23z m140 -53 c19 -16 31 -35 31 -50 0 -23 -2 -24 -79 -24 -44 0
-82 3 -85 8 -9 14 24 72 46 82 37 15 55 11 87 -16z"/>
<path d="M8285 2897 c-53 -24 -74 -70 -55 -117 13 -31 63 -55 167 -80 56 -13
76 -38 53 -65 -20 -24 -115 -20 -140 5 -20 20 -84 28 -94 12 -7 -11 16 -37 54
-61 27 -16 51 -21 103 -21 108 0 167 38 167 106 0 47 -42 79 -127 94 -78 14
-113 32 -113 59 0 36 91 44 133 11 18 -15 33 -18 56 -14 39 8 38 28 -2 58 -35
26 -156 34 -202 13z"/>
<path d="M3322 2738 l3 -163 40 0 40 0 0 160 0 160 -43 3 -43 3 3 -163z"/>
<path d="M3970 2734 l0 -165 38 3 37 3 3 163 2 162 -40 0 -40 0 0 -166z"/>
<path d="M5780 2735 l0 -166 43 3 42 3 0 160 0 160 -42 3 -43 3 0 -166z"/>
<path d="M1360 2330 l0 -511 93 3 92 3 3 315 3 315 73 -140 c40 -77 97 -186
126 -243 l54 -103 46 88 c26 49 84 158 128 243 l81 155 1 -317 0 -318 95 0 95
0 0 510 0 510 -94 0 -94 0 -65 -117 c-140 -254 -170 -309 -183 -326 -11 -17
-17 -9 -60 70 -26 48 -68 124 -94 168 -26 44 -62 108 -80 143 l-33 62 -93 0
-94 0 0 -510z"/>
<path d="M2364 2478 c-9 -18 -34 -58 -56 -89 l-39 -56 3 -124 3 -124 79 75
c89 85 143 160 192 266 19 40 34 75 34 78 0 3 -45 6 -100 6 l-99 0 -17 -32z"/>
<path d="M1570 2089 l0 -98 50 -15 c28 -8 78 -18 111 -22 l61 -7 -53 104 -54
103 -57 17 -58 17 0 -99z"/>
<path d="M1976 2162 l-58 -16 -50 -100 -50 -99 74 6 c40 4 90 12 111 17 l37
11 0 99 c0 55 -1 100 -2 99 -2 0 -29 -8 -62 -17z"/>
</g>
</svg>
