<?xml version="1.0" standalone="no"?>
<!DOCTYPE svg PUBLIC "-//W3C//DTD SVG 20010904//EN"
 "http://www.w3.org/TR/2001/REC-SVG-20010904/DTD/svg10.dtd">
<svg version="1.0" xmlns="http://www.w3.org/2000/svg"
 width="2047.000000pt" height="494.000000pt" viewBox="0 0 2047.000000 494.000000"
 preserveAspectRatio="xMidYMid meet">

<g transform="translate(0.000000,494.000000) scale(0.100000,-0.100000)"
fill="#000000" stroke="none">
<path d="M1995 4669 c-100 -13 -297 -55 -422 -90 -297 -82 -732 -382 -956
-659 -163 -202 -330 -506 -411 -750 -60 -180 -70 -287 -63 -680 6 -323 11
-363 73 -548 75 -224 201 -463 344 -652 67 -89 347 -380 366 -380 18 0 24 89
24 368 l0 263 -104 212 c-111 224 -169 369 -192 477 -67 319 -31 666 101 975
87 204 179 339 335 496 203 204 491 369 779 447 90 24 110 26 331 26 344 1
491 -30 730 -151 234 -118 384 -236 570 -446 l105 -118 230 6 c267 7 285 9
285 39 0 66 -227 384 -389 546 -211 210 -529 421 -759 504 -275 99 -706 149
-977 115z"/>
<path d="M2100 3360 c-105 -49 -170 -149 -170 -260 0 -83 23 -133 85 -188 79
-69 196 -91 282 -53 130 60 200 240 139 359 -68 131 -221 196 -336 142z"/>
<path d="M6375 3352 c-41 -5 -68 -33 -100 -105 -31 -67 -27 -86 18 -98 34 -9
93 29 170 110 58 60 67 79 45 85 -24 8 -103 12 -133 8z"/>
<path d="M4696 3339 c-82 -13 -172 -65 -251 -143 -129 -129 -178 -262 -178
-486 -1 -122 2 -143 27 -215 52 -151 144 -258 278 -326 95 -48 168 -63 308
-63 156 0 239 22 326 88 91 68 213 241 188 266 -13 13 -204 61 -215 54 -5 -3
-9 -13 -9 -23 0 -42 -97 -156 -170 -199 -40 -24 -55 -27 -130 -26 -110 0 -175
22 -239 80 -84 76 -131 205 -131 366 0 166 43 310 114 381 45 46 112 67 236
74 133 8 164 -3 254 -87 41 -38 87 -72 101 -76 30 -7 79 -1 153 21 l52 16 -35
57 c-44 70 -136 159 -205 196 -28 15 -86 34 -128 42 -84 15 -268 17 -346 3z"/>
<path d="M15374 3340 c-28 -4 -62 -15 -76 -24 -43 -28 -87 -124 -99 -218 -6
-45 -16 -88 -21 -95 -5 -7 -34 -19 -64 -28 -57 -17 -74 -35 -74 -83 0 -34 17
-42 96 -42 l51 0 6 -107 c4 -58 7 -179 7 -267 0 -89 3 -205 7 -258 l6 -97 41
-5 c23 -3 67 -8 99 -11 l57 -5 0 375 0 375 83 0 c99 0 127 14 127 64 0 46 -25
65 -99 72 -34 4 -71 14 -82 23 -28 23 -36 89 -15 133 22 47 64 68 154 80 42 5
80 14 84 21 12 18 9 51 -4 70 -24 32 -162 45 -284 27z"/>
<path d="M5700 2715 l0 -615 105 0 105 0 0 615 0 615 -105 0 -105 0 0 -615z"/>
<path d="M7986 3315 c-13 -14 -16 -32 -14 -89 l3 -71 50 -3 c107 -7 138 13
148 98 9 67 0 74 -91 78 -64 3 -82 1 -96 -13z"/>
<path d="M11170 3078 c0 -139 3 -412 7 -605 l6 -353 104 0 c100 0 103 1 103
23 6 334 21 837 26 885 4 34 10 62 15 62 12 0 55 -138 114 -370 30 -118 80
-301 112 -406 l56 -192 36 -6 c20 -3 66 -6 103 -6 59 0 69 3 82 23 8 12 47
135 86 272 96 338 177 605 196 651 13 31 18 35 25 22 13 -23 29 -419 29 -710
l0 -247 43 -5 c23 -3 68 -7 100 -10 l57 -5 0 616 0 616 -112 -6 c-62 -4 -147
-7 -189 -7 l-76 0 -68 -227 c-37 -126 -88 -307 -111 -403 -52 -205 -62 -240
-75 -240 -5 0 -9 1 -9 3 0 1 -21 63 -46 137 -25 74 -83 263 -130 420 -47 157
-87 293 -90 303 -5 15 -23 17 -200 17 l-194 0 0 -252z"/>
<path d="M12813 3319 c-21 -22 -16 -116 7 -139 25 -25 107 -27 155 -5 57 28
74 102 29 131 -34 23 -173 32 -191 13z"/>
<path d="M15810 2717 l0 -615 78 4 c42 3 92 7 110 10 l32 5 0 599 0 600 -49 0
c-26 0 -76 3 -110 6 l-61 7 0 -616z"/>
<path d="M8788 2995 c-143 -31 -264 -127 -308 -243 -31 -81 -39 -252 -15 -342
58 -222 221 -320 500 -299 161 12 256 67 316 183 33 66 34 67 15 82 -32 23
-121 22 -167 -2 -15 -7 -41 -31 -58 -53 -44 -55 -101 -76 -187 -68 -37 4 -83
14 -103 24 -74 37 -115 141 -114 293 0 193 71 280 227 280 75 0 120 -16 171
-60 25 -22 60 -43 78 -48 37 -11 122 -1 139 16 19 19 -1 61 -60 120 -112 114
-264 155 -434 117z"/>
<path d="M9810 2999 c-30 -5 -78 -21 -107 -35 -84 -41 -169 -152 -133 -174 7
-4 39 -13 71 -19 66 -13 81 -9 141 45 94 84 262 68 314 -31 12 -22 25 -55 29
-72 8 -41 8 -41 -209 -89 -248 -55 -346 -105 -384 -193 -16 -40 -18 -163 -3
-204 26 -68 150 -117 296 -117 101 0 150 13 225 59 79 49 87 49 109 -2 22 -51
29 -55 122 -63 l69 -7 0 134 c0 173 -18 505 -31 589 -12 74 -25 93 -90 125
-99 51 -295 76 -419 54z m311 -471 c15 -29 5 -127 -20 -183 -61 -138 -296
-166 -354 -42 -52 108 18 182 213 226 116 26 146 26 161 -1z"/>
<path d="M13705 2992 c-22 -10 -72 -53 -112 -95 -39 -43 -74 -77 -77 -77 -3 0
-6 31 -6 68 0 40 -5 73 -12 80 -7 7 -43 12 -90 12 l-78 0 0 -440 0 -440 104 0
104 0 5 258 c5 277 13 333 63 398 26 35 95 64 151 64 59 0 102 25 123 72 38
84 23 108 -72 115 -48 3 -73 -1 -103 -15z"/>
<path d="M14314 3000 c-66 -13 -135 -54 -187 -109 -56 -60 -62 -96 -19 -112
43 -17 109 -1 203 48 73 38 97 46 142 46 100 0 179 -66 179 -149 0 -20 -6 -43
-14 -50 -8 -8 -85 -30 -171 -48 -263 -57 -336 -90 -394 -178 -23 -34 -28 -52
-28 -102 1 -67 13 -94 74 -159 47 -50 84 -69 151 -78 99 -12 204 6 301 52 48
23 92 38 98 34 6 -3 19 -23 29 -43 17 -36 19 -37 78 -40 33 -2 73 2 88 8 l28
10 -6 178 c-11 289 -26 501 -37 547 -17 69 -91 110 -247 141 -79 15 -201 17
-268 4z m312 -476 c12 -46 -1 -180 -20 -209 -22 -34 -68 -62 -135 -81 -121
-36 -231 30 -231 139 0 40 21 72 63 94 50 26 238 82 279 83 32 0 39 -4 44 -26z"/>
<path d="M16660 2999 c-30 -5 -75 -19 -100 -31 -67 -32 -190 -161 -228 -239
-78 -159 -38 -374 92 -498 93 -87 189 -121 348 -121 176 0 274 35 363 131 93
101 142 233 132 357 -10 128 -116 286 -233 345 -105 53 -259 76 -374 56z m217
-168 c54 -25 126 -92 148 -136 17 -37 23 -184 9 -240 -30 -127 -126 -205 -250
-205 -118 0 -192 46 -238 149 -32 72 -45 193 -27 259 26 94 162 192 265 192
28 0 70 -9 93 -19z"/>
<path d="M17904 2992 c-23 -11 -68 -51 -105 -91 l-64 -72 -6 60 c-8 87 -14 91
-123 91 l-91 0 2 -277 c2 -153 5 -346 9 -430 l6 -152 42 -5 c22 -3 64 -7 92
-10 l52 -5 6 137 c11 215 26 384 40 445 25 106 56 130 186 142 47 4 82 13 94
24 25 22 46 65 46 95 0 55 -110 83 -186 48z"/>
<path d="M18523 2995 c-29 -8 -70 -25 -91 -39 -86 -54 -169 -179 -207 -311
-36 -121 -4 -270 81 -385 86 -117 191 -155 412 -148 152 4 180 16 281 115 l66
64 -28 15 c-15 8 -51 19 -81 25 -64 12 -94 2 -147 -46 -93 -84 -244 -64 -324
41 -27 35 -65 130 -65 161 0 11 60 13 330 13 294 0 331 2 337 16 3 9 1 58 -4
109 -12 111 -42 180 -111 249 -106 108 -302 160 -449 121z m240 -165 c66 -47
107 -110 107 -164 0 -31 -4 -38 -27 -47 -39 -15 -388 -8 -404 8 -19 19 -2 75
41 142 47 73 96 100 176 101 44 0 59 -6 107 -40z"/>
<path d="M19578 3000 c-191 -23 -312 -181 -252 -329 30 -76 147 -138 381 -202
165 -45 205 -65 224 -110 10 -27 10 -36 -2 -58 -25 -46 -82 -66 -184 -65 -98
0 -153 14 -200 49 -44 32 -117 55 -179 55 -94 0 -99 -39 -13 -116 108 -98 236
-130 443 -113 104 9 143 19 215 55 156 78 187 280 58 374 -55 39 -128 66 -280
100 -196 44 -261 79 -275 147 -5 25 -1 34 21 51 84 66 234 53 365 -30 64 -41
190 -20 190 32 0 27 -55 87 -103 111 -79 41 -279 65 -409 49z"/>
<path d="M7210 2991 c-43 -14 -103 -48 -159 -90 -30 -22 -58 -38 -62 -35 -5 2
-11 21 -15 40 -9 48 -38 64 -128 71 l-76 6 0 -184 c0 -101 3 -295 7 -431 l6
-247 41 -5 c23 -3 66 -7 97 -10 l57 -4 5 261 c5 289 15 353 65 417 40 50 109
82 180 83 68 0 128 -18 142 -43 15 -28 28 -174 41 -445 6 -137 12 -251 14
-253 4 -4 219 -21 223 -17 8 8 -19 684 -29 719 -15 52 -79 119 -142 147 -40
17 -74 23 -147 26 -52 1 -106 -1 -120 -6z"/>
<path d="M6236 2703 c2 -153 7 -347 10 -430 l6 -153 104 0 104 0 0 424 0 423
-67 6 c-38 4 -89 7 -115 7 l-47 0 5 -277z"/>
<path d="M7970 2540 l0 -440 58 5 c31 3 76 8 100 11 l42 5 0 203 c0 112 3 305
7 429 l6 227 -106 0 -107 0 0 -440z"/>
<path d="M12790 2540 l0 -440 73 5 c39 3 91 8 115 11 l42 5 0 423 0 423 -67 6
c-38 4 -89 7 -115 7 l-48 0 0 -440z"/>
<path d="M1010 1460 l0 -1360 153 5 c83 3 193 8 243 11 l91 6 6 495 c4 273 7
650 7 837 1 270 3 338 13 325 7 -9 158 -298 337 -643 179 -344 327 -626 330
-626 3 0 21 30 39 68 18 37 115 222 216 412 100 190 235 448 301 573 l119 229
5 -844 5 -843 253 -3 252 -2 0 1360 0 1360 -251 -2 -252 -3 -92 -165 c-50 -91
-178 -322 -284 -515 -232 -420 -281 -503 -301 -510 -21 -9 -43 22 -139 197
-46 84 -157 281 -246 438 -89 157 -195 347 -236 423 l-73 137 -248 0 -248 0 0
-1360z"/>
<path d="M3690 1863 c-24 -43 -91 -150 -151 -238 l-108 -160 9 -318 c4 -175
10 -321 13 -323 11 -11 398 387 464 476 114 154 212 328 309 550 l33 75 -27 6
c-15 4 -133 7 -264 8 l-236 1 -42 -77z"/>
<path d="M1570 821 l0 -260 84 -25 c149 -46 474 -101 492 -84 4 5 -256 518
-271 536 -3 3 -294 92 -302 92 -1 0 -3 -117 -3 -259z"/>
<path d="M2646 1015 l-149 -42 -133 -265 -133 -265 42 3 c262 23 405 44 495
71 l52 17 -2 260 c-2 163 -7 260 -13 261 -5 2 -77 -17 -159 -40z"/>
</g>
</svg>
