<?xml version="1.0" encoding="UTF-8"?>
<svg id="Capa_1" data-name="Capa 1" xmlns="http://www.w3.org/2000/svg" viewBox="0 0 374.92 59.91">
  <defs>
    <style>
      .cls-1 {
        fill: #1a408b;
      }

      .cls-2 {
        fill: #2a3978;
      }

      .cls-3 {
        fill: #24b5b5;
      }
    </style>
  </defs>
  <path class="cls-2" d="m349.74,26.06c-2.19,1.08-4.39,1.62-6.59,1.62-3.7,0-6.75-1.19-9.09-3.52-2.33-2.34-3.49-5.39-3.49-9.08s1.09-6.73,3.25-9.11c2.19-2.4,5.1-3.6,8.76-3.6,2.26,0,4.61.55,7.08,1.66l-1.48,3.67c-2.12-.93-4.01-1.4-5.68-1.4-2.26,0-4.02.86-5.32,2.56-1.18,1.54-1.8,3.45-1.8,5.79,0,2.73.68,4.93,2.09,6.55,1.48,1.72,3.56,2.58,6.26,2.58,1.62,0,3.23-.4,4.86-1.14l1.15,3.44Z"/>
  <rect class="cls-2" x="322.77" y="2.73" width="4.51" height="24.59"/>
  <path class="cls-2" d="m318.53,27.03c-.9.36-1.79.54-2.66.54-2.19,0-3.89-1.04-5.07-3.13l-9.13-15.78c-.18-.32-.36-.65-.47-.91h-.07v19.56h-4.5V2.73h6.72l10.08,18.22c.11.26.28.62.54,1.09h.07V2.73h4.49v24.31Z"/>
  <rect class="cls-2" x="287.75" y="2.73" width="4.49" height="24.59"/>
  <polygon class="cls-2" points="284.3 27.32 269.63 27.32 269.63 2.73 274.12 2.73 274.12 23.44 284.3 23.44 284.3 27.32"/>
  <path class="cls-2" d="m266.64,26.06c-2.2,1.08-4.38,1.62-6.58,1.62-3.7,0-6.75-1.19-9.1-3.52-2.34-2.34-3.49-5.39-3.49-9.08s1.08-6.73,3.24-9.11c2.2-2.4,5.1-3.6,8.77-3.6,2.27,0,4.6.55,7.08,1.66l-1.47,3.67c-2.13-.93-4.04-1.4-5.68-1.4-2.26,0-4.04.86-5.33,2.56-1.18,1.54-1.8,3.45-1.8,5.79,0,2.73.69,4.93,2.09,6.55,1.48,1.72,3.56,2.58,6.26,2.58,1.62,0,3.24-.4,4.86-1.14l1.15,3.44Z"/>
  <polygon class="cls-2" points="238.56 27.32 223.88 27.32 223.88 2.73 228.37 2.73 228.37 23.44 238.56 23.44 238.56 27.32"/>
  <path class="cls-2" d="m212.2,2.73h-4.29l-10.17,24.59,4.81-.03,2.45-6.22h9.49l2.45,6.26h5.04l-9.78-24.59Zm-5.62,14.45l3.2-8.31,3.25,8.31h-6.45Z"/>
  <polygon class="cls-2" points="198.31 6.61 190.62 6.61 190.62 27.32 186.13 27.32 186.13 6.61 178.9 6.61 178.9 2.73 198.31 2.73 198.31 6.61"/>
  <rect class="cls-2" x="172.49" y="2.73" width="4.49" height="24.59"/>
  <path class="cls-2" d="m166.52,4.09c-1.62-1.19-3.74-1.77-6.36-1.77s-4.78.23-6.75.69v24.31h4.49v-9.67c.83.11,1.59.18,2.19.18,2.63,0,4.8-.68,6.48-2.01,1.84-1.44,2.77-3.42,2.77-5.94s-.93-4.43-2.81-5.79Zm-6.53,9.92c-.77,0-1.45-.03-2.1-.14v-7.48c.73-.14,1.44-.2,2.19-.2,3.06,0,4.57,1.18,4.57,3.56,0,2.73-1.91,4.27-4.67,4.27Z"/>
  <path class="cls-2" d="m150.13,20.38c0,2.33-.98,4.2-2.95,5.53-1.76,1.19-3.85,1.8-6.33,1.8-2.34,0-4.68-.43-7.05-1.3l1.11-3.77c2.33.79,4.32,1.19,5.93,1.19,1.15,0,2.13-.23,2.91-.65.97-.54,1.48-1.34,1.48-2.38,0-1.25-.96-2.37-2.9-3.31-3.35-1.61-5.19-2.51-5.43-2.69-1.94-1.4-2.91-3.31-2.91-5.69s.9-3.99,2.69-5.21c1.59-1.04,3.57-1.59,5.9-1.59,1.91,0,4.11.44,6.58,1.26l-1.37,3.66c-2.12-.67-3.81-1.03-5.07-1.03-2.59,0-3.88.9-3.88,2.73,0,1.04.97,2.02,2.91,2.91,3.02,1.37,4.86,2.27,5.47,2.69,1.94,1.48,2.92,3.42,2.92,5.83Z"/>
  <path class="cls-2" d="m128.73,5.99c-2.13-2.43-4.99-3.67-8.7-3.67s-6.54,1.23-8.67,3.67c-1.97,2.3-2.95,5.33-2.95,9.08s1.02,6.68,3.03,9.01c2.09,2.41,4.96,3.64,8.59,3.64s6.51-1.23,8.63-3.67c2.02-2.29,3.02-5.29,3.02-8.98s-.97-6.77-2.95-9.08Zm-3.45,15.07c-1.18,1.84-2.95,2.78-5.25,2.78s-4.03-.94-5.24-2.78c-1.05-1.57-1.56-3.59-1.56-5.99s.5-4.5,1.52-6.09c1.18-1.83,2.94-2.76,5.28-2.76s4.1.93,5.28,2.76c1.05,1.59,1.55,3.6,1.55,6.09s-.54,4.42-1.58,5.99Z"/>
  <polygon class="cls-2" points="105.25 27.32 100.75 27.32 100.75 16.39 89.93 16.39 89.93 27.32 85.44 27.32 85.44 2.73 89.93 2.73 89.93 12.65 100.75 12.65 100.75 2.73 105.25 2.73 105.25 27.32"/>
  <path class="cls-2" d="m331.89,51.49c-.29-.49-1.09-1.62-1.77-1.67v-.02c2.78-.83,4.53-2.7,4.53-5.69,0-4.26-3.18-5.95-7.04-5.95-1.53,0-3.07.18-4.55.53v20.88h2.07v-9.57c.74.12,1.51.18,2.24.18.31,0,.62,0,.92-.03.56.38,1.23,1.39,1.54,1.95l4.19,7.48h2.41l-4.56-8.08Zm-4.32-3.08c-.8,0-1.63-.09-2.43-.23v-8c.8-.18,1.66-.25,2.48-.25,2.85,0,4.94,1.02,4.94,4.17s-2.15,4.31-4.99,4.31Z"/>
  <path class="cls-2" d="m310.08,38.48h-2.07l-8.47,21.08h2.07l2.37-6.13h9.68l2.4,6.13h2.2l-8.17-21.08Zm-5.34,13.17l3.89-10.05.25-.68h.02l4.07,10.73h-8.24Z"/>
  <path class="cls-2" d="m295.01,59.56h-2.06v-19.1h-.07s-.25.74-.43,1.07l-6.75,13.1c-.95.03-1.57-1.05-1.94-1.79l-5.81-11.31c-.17-.37-.42-1.07-.42-1.07h-.07v19.1h-2.07v-21.08h3.18l6.13,12.12c.19.34.43,1.08.43,1.08h.1s.21-.74.4-1.08c0,0,4.16-8.17,6.19-12.12h3.18v21.08Z"/>
  <polygon class="cls-2" points="261.49 59.56 250.7 59.56 250.7 38.48 252.77 38.48 252.77 57.79 261.49 57.79 261.49 59.56"/>
  <polygon class="cls-2" points="244.97 59.56 234.18 59.56 234.18 38.48 244.7 38.48 244.7 40.28 236.25 40.28 236.25 47.67 243.3 47.67 243.3 49.45 236.25 49.45 236.25 57.79 244.97 57.79 244.97 59.56"/>
  <path class="cls-2" d="m217.59,38.15c-1.85,0-3.7.18-5.52.55v20.74c1.6.31,3.21.46,4.84.46,7.06,0,11.25-4.4,11.25-11.4s-4.01-10.35-10.57-10.35Zm-.46,19.97c-.99,0-2-.09-3-.31v-17.53c1.11-.25,2.32-.34,3.46-.34,5.42,0,8.48,3.17,8.48,8.57s-3.06,9.62-8.94,9.62Z"/>
  <path class="cls-2" d="m189.72,38.48h-2.07l-8.48,21.08h2.07l2.38-6.13h9.68l2.41,6.13h2.18l-8.16-21.08Zm-5.33,13.17l3.88-10.05.25-.68h.02l4.06,10.73h-8.22Z"/>
  <path class="cls-2" d="m170.14,34.26l1.11.49c-.37,1.14-1.29,2.1-2.53,2.1-.65,0-1.29-.21-1.84-.52-.12,0-1.12-.67-1.89-.67s-1.26.36-1.42,1.01l-1.11-.49c.38-1.17,1.3-2.1,2.53-2.1.64,0,1.32.21,1.89.52.13,0,1.07.68,1.84.68s1.27-.4,1.42-1.03Z"/>
  <path class="cls-2" d="m172.58,57.47v-18.99h2.07v20.96c-.37.15-.78.28-1.15.28-1.17-.03-2.19-.87-2.87-2.01l-9.85-16.18c-.22-.33-.43-1.07-.43-1.07h-.09v19.1h-2.06v-21.08h3.05l10.78,17.91c.22.34.49,1.07.49,1.07h.06Z"/>
  <rect class="cls-2" x="149.27" y="38.48" width="2.06" height="21.08"/>
  <path class="cls-2" d="m135.18,57.01h.09c.03-.43.22-1.01.36-1.38l6.57-17.14h2.22l-8.38,21.39c-1.45,0-2.4-1.38-2.84-2.53l-7.18-18.86h2.19l6.47,17.14c.18.46.35.92.49,1.38Z"/>
  <path class="cls-2" d="m371.97,5.99c-2.13-2.43-5-3.67-8.71-3.67s-6.54,1.23-8.66,3.67c-1.98,2.3-2.95,5.33-2.95,9.08s1.01,6.68,3.03,9.01c2.09,2.41,4.96,3.64,8.58,3.64s6.51-1.23,8.64-3.67c2.02-2.29,3.02-5.29,3.02-8.98s-.99-6.77-2.95-9.08Zm-3.45,15.07c-1.19,1.84-2.95,2.78-5.26,2.78s-4.02-.94-5.24-2.78c-1.05-1.57-1.55-3.59-1.55-5.99s.51-4.5,1.51-6.09c1.19-1.83,2.96-2.76,5.28-2.76s4.1.93,5.29,2.76c1.04,1.59,1.55,3.6,1.55,6.09s-.54,4.42-1.58,5.99Z"/>
  <path class="cls-3" d="m66.14,4.17c-1.8-1.2-5.05-1.57-5.05.1,3.4,18.59.87,30.13-23.05,44.04-.08.05-.18.09-.27.14-.09-.05-.18-.09-.27-.14C13.58,34.4,11.05,22.86,14.45,4.27c0-1.67-3.25-1.3-5.05-.1C-9.41,16.71.77,37.86,33.07,50.55c-5.64,2.31-12.12,4.68-10.93,7.05,1.42,1.42,2.63-.35,15.63-5.3,13,4.95,14.21,6.72,15.63,5.3,1.18-2.37-5.3-4.74-10.93-7.05,32.3-12.69,42.48-33.84,23.67-46.38Z"/>
  <path id="Fill-5" class="cls-1" d="m56.35,18.52c-.02,10.21-8.43,18.47-18.77,18.45-10.35-.02-18.72-8.31-18.71-18.52C18.89,8.24,27.29-.02,37.64,0c10.35.02,18.72,8.31,18.71,18.52"/>
</svg>