<?xml version="1.0" standalone="no"?>
<!DOCTYPE svg PUBLIC "-//W3C//DTD SVG 20010904//EN"
 "http://www.w3.org/TR/2001/REC-SVG-20010904/DTD/svg10.dtd">
<svg version="1.0" xmlns="http://www.w3.org/2000/svg"
 width="300.000000pt" height="300.000000pt" viewBox="0 0 300.000000 300.000000"
 preserveAspectRatio="xMidYMid meet">

<g transform="translate(0.000000,300.000000) scale(0.100000,-0.100000)"
fill="#000000" stroke="none">
<path d="M1361 2179 c-57 -100 -105 -188 -108 -198 -4 -15 32 -65 215 -302 40
-52 71 -101 69 -109 -2 -9 -69 -115 -149 -235 -79 -121 -148 -226 -152 -232
-5 -10 4 -13 38 -13 l45 0 81 128 c45 70 115 179 156 242 40 63 74 119 74 123
0 4 -64 90 -142 190 -77 100 -145 187 -149 193 -6 7 32 82 96 194 58 100 105
186 105 191 0 5 -17 9 -38 9 l-39 0 -102 -181z"/>
<path d="M1617 2323 c-13 -21 -41 -69 -62 -108 -22 -38 -61 -108 -88 -155 -39
-68 -47 -88 -38 -102 6 -10 72 -96 146 -192 74 -97 135 -182 135 -191 0 -8
-68 -119 -150 -246 -83 -127 -148 -235 -145 -240 4 -5 21 -9 38 -9 37 0 17
-27 230 307 65 100 117 188 117 194 0 11 -21 41 -125 174 -132 170 -165 215
-165 225 0 6 18 40 40 76 22 36 40 67 40 69 0 2 29 53 65 114 36 60 65 112 65
115 0 3 -18 6 -40 6 -35 0 -43 -4 -63 -37z"/>
<path d="M1230 2339 c-500 -56 -875 -275 -935 -545 -16 -70 -16 -79 0 -142 9
-37 28 -87 42 -111 103 -176 370 -330 688 -395 44 -9 90 -19 101 -21 18 -4 43
27 168 218 80 122 146 226 147 230 0 5 -61 87 -137 184 -77 96 -145 183 -152
193 -12 16 -3 36 67 160 45 78 81 144 81 146 0 3 11 22 24 43 14 21 22 42 19
45 -7 7 -9 7 -113 -5z"/>
<path d="M1710 2148 c-84 -152 -100 -186 -90 -201 6 -10 74 -96 150 -191 77
-95 140 -179 140 -186 0 -7 -19 -42 -41 -78 -70 -111 -189 -295 -220 -341 -17
-24 -28 -45 -26 -48 6 -5 223 23 292 39 399 87 674 269 739 488 21 70 20 125
-2 198 -50 158 -209 295 -467 402 -69 28 -228 73 -300 85 -22 3 -47 8 -56 11
-13 4 -40 -38 -119 -178z"/>
<path d="M256 881 c-11 -12 -16 -31 -14 -53 3 -28 10 -37 50 -58 30 -16 48
-32 48 -43 0 -23 -28 -33 -51 -19 -26 16 -32 15 -47 -8 -10 -17 -8 -21 18 -35
39 -20 68 -19 108 5 26 16 32 26 32 54 0 36 -15 53 -79 88 -42 23 -33 52 14
44 23 -5 36 -2 45 10 19 22 -2 34 -61 34 -33 0 -51 -6 -63 -19z"/>
<path d="M503 880 c-17 -10 -37 -29 -43 -40 -17 -32 -14 -104 5 -133 57 -88
216 -66 246 33 15 50 5 86 -36 127 -29 29 -39 33 -86 33 -36 0 -65 -7 -86 -20z
m132 -45 c50 -49 14 -138 -55 -138 -41 0 -80 40 -80 84 0 40 39 79 80 79 19 0
40 -9 55 -25z"/>
<path d="M777 893 c-8 -16 -7 -219 2 -231 4 -8 17 -12 27 -10 15 2 20 14 22
51 3 45 4 47 33 47 35 0 89 47 89 78 0 11 -9 31 -21 46 -18 23 -27 26 -84 26
-35 0 -66 -3 -68 -7z m108 -54 c8 -26 -16 -54 -39 -46 -10 4 -16 18 -16 37 0
25 4 30 24 30 16 0 27 -7 31 -21z"/>
<path d="M1002 778 l3 -123 25 0 c22 0 25 5 28 43 2 23 7 42 12 42 5 0 23 -20
40 -45 22 -33 38 -45 55 -45 32 0 31 16 -5 64 l-29 39 24 29 c55 66 14 118
-92 118 l-64 0 3 -122z m113 62 c8 -25 -10 -50 -36 -50 -15 0 -19 7 -19 35 0
30 3 35 24 35 16 0 27 -7 31 -20z"/>
<path d="M1289 883 c-88 -55 -72 -187 27 -222 56 -20 109 -8 151 34 28 28 33
40 33 79 0 82 -49 126 -137 126 -27 0 -60 -8 -74 -17z m115 -34 c54 -25 53
-110 -2 -142 -79 -46 -153 63 -87 128 26 27 51 31 89 14z"/>
<path d="M1562 778 c3 -140 0 -135 96 -123 75 9 122 53 122 113 0 94 -44 132
-153 132 l-68 0 3 -122z m121 71 c26 -12 47 -47 47 -80 0 -34 -46 -71 -83 -67
l-32 3 -3 64 c-2 35 -1 70 2 77 6 17 36 18 69 3z"/>
<path d="M1832 778 l3 -123 25 0 25 0 3 123 3 122 -31 0 -31 0 3 -122z"/>
<path d="M2077 882 c-10 -10 -17 -32 -17 -49 0 -32 18 -52 63 -71 58 -25 43
-76 -15 -54 -27 10 -35 9 -47 -3 -14 -13 -14 -17 0 -31 9 -8 34 -18 56 -21 32
-4 44 0 71 22 52 44 35 101 -38 126 -52 19 -50 65 3 55 37 -7 63 10 46 30 -17
21 -102 18 -122 -4z"/>
<path d="M2416 786 c-27 -63 -48 -118 -48 -123 1 -4 10 -9 22 -11 13 -2 24 5
32 22 10 24 17 26 68 26 51 0 58 -3 68 -25 11 -24 45 -34 55 -17 3 4 -18 59
-47 122 -44 98 -56 115 -77 118 -22 2 -28 -8 -73 -112z m94 -2 c12 -30 6 -44
-20 -44 -26 0 -32 14 -19 44 15 33 27 33 39 0z"/>
<path d="M2260 695 c-10 -12 -10 -18 0 -30 25 -30 67 -7 49 27 -12 22 -32 23
-49 3z"/>
<path d="M2675 694 c-12 -12 -13 -19 -4 -30 15 -18 33 -18 49 1 10 12 10 18 0
30 -16 19 -25 19 -45 -1z"/>
</g>
</svg>
